<mxfile host="app.diagrams.net" modified="2023-05-23T07:49:11.311Z" agent="Mozilla/5.0 (X11; Linux x86_64) AppleWebKit/537.36 (KHTML, like Gecko) Chrome/107.0.0.0 Safari/537.36" version="21.3.2" etag="chib_GLyyBHnVP98fTtc" type="github">
  <diagram name="第 1 页" id="NX71nq86lHwo2gXV7Ovm">
    <mxGraphModel>
      <root>
        <mxCell id="0" />
        <mxCell id="1" parent="0" />
      </root>
    </mxGraphModel>
  </diagram>
</mxfile>
